<?xml version="1.0" encoding="UTF-8" standalone="no"?>
<!-- Created with Inkscape (http://www.inkscape.org/) -->

<svg
   width="18.585251mm"
   height="18.585253mm"
   viewBox="0 0 18.585251 18.585253"
   version="1.1"
   id="svg1"
   xmlns:inkscape="http://www.inkscape.org/namespaces/inkscape"
   xmlns:sodipodi="http://sodipodi.sourceforge.net/DTD/sodipodi-0.dtd"
   xmlns="http://www.w3.org/2000/svg"
   xmlns:svg="http://www.w3.org/2000/svg">
  <sodipodi:namedview
     id="namedview1"
     pagecolor="#ffffff"
     bordercolor="#000000"
     borderopacity="0.25"
     inkscape:showpageshadow="2"
     inkscape:pageopacity="0.0"
     inkscape:pagecheckerboard="0"
     inkscape:deskcolor="#d1d1d1"
     inkscape:document-units="mm">
    <inkscape:page
       x="0"
       y="0"
       width="18.585251"
       height="18.585253"
       id="page2"
       margin="0"
       bleed="0" />
  </sodipodi:namedview>
  <defs
     id="defs1" />
  <g
     inkscape:label="Calque 1"
     inkscape:groupmode="layer"
     id="layer1"
     transform="translate(-29.633334,-127.52917)">
    <g
       id="g4">
      <path
         d="m 29.797833,128.11382 c 0,-0.23203 0.188119,-0.42015 0.420159,-0.42015 h 4.715933 c 0.23204,0 0.420158,0.18812 0.420158,0.42015 v 4.71594 c 0,0.23204 -0.188118,0.42016 -0.420158,0.42016 h -4.715933 c -0.23204,0 -0.420159,-0.18812 -0.420159,-0.42016 z"
         stroke="#d9b22b"
         stroke-width="0.529167"
         stroke-miterlimit="8"
         fill="#f2c62f"
         fill-rule="evenodd"
         id="path1-5-2"
         style="stroke-width:0.329;stroke-dasharray:none" />
      <path
         d="m 36.147833,128.11382 c 0,-0.23203 0.188119,-0.42015 0.420159,-0.42015 h 4.715933 c 0.23204,0 0.420158,0.18812 0.420158,0.42015 v 4.71594 c 0,0.23204 -0.188118,0.42016 -0.420158,0.42016 h -4.715933 c -0.23204,0 -0.420159,-0.18812 -0.420159,-0.42016 z"
         stroke="#c58931"
         stroke-width="0.529167"
         stroke-miterlimit="8"
         fill="#f6ac26"
         fill-rule="evenodd"
         id="path2-1-2"
         style="stroke-width:0.329;stroke-dasharray:none" />
      <path
         d="m 42.497833,128.04397 c 0,-0.19341 0.156898,-0.3503 0.350309,-0.3503 h 4.855633 c 0.19341,0 0.350308,0.15689 0.350308,0.3503 v 4.85564 c 0,0.19341 -0.156898,0.35031 -0.350308,0.35031 h -4.855633 c -0.193411,0 -0.350309,-0.1569 -0.350309,-0.35031 z"
         stroke="#c13a1c"
         stroke-width="0.529167"
         stroke-miterlimit="8"
         fill="#e25631"
         fill-rule="evenodd"
         id="path3-7-1"
         style="stroke-width:0.329;stroke-dasharray:none" />
      <path
         d="m 29.797833,134.4289 c 0,-0.21273 0.172509,-0.38523 0.385234,-0.38523 h 4.785783 c 0.212725,0 0.385233,0.1725 0.385233,0.38523 v 4.78578 c 0,0.21272 -0.172508,0.38523 -0.385233,0.38523 h -4.785783 c -0.212725,0 -0.385234,-0.17251 -0.385234,-0.38523 z"
         stroke="#2b5624"
         stroke-width="0.529167"
         stroke-miterlimit="8"
         fill="#508343"
         fill-rule="evenodd"
         id="path4-1-6"
         style="stroke-width:0.329;stroke-dasharray:none" />
      <path
         d="m 36.147833,134.32386 c 0,-0.15478 0.125413,-0.28019 0.280194,-0.28019 h 4.995863 c 0.154781,0 0.280193,0.12541 0.280193,0.28019 v 4.99586 c 0,0.15478 -0.125412,0.28019 -0.280193,0.28019 h -4.995863 c -0.154781,0 -0.280194,-0.12541 -0.280194,-0.28019 z"
         stroke="#c58931"
         stroke-width="0.529167"
         stroke-miterlimit="8"
         fill="#f6ac26"
         fill-rule="evenodd"
         id="path5-1-8"
         style="stroke-width:0.329;stroke-dasharray:none" />
      <path
         d="m 42.497833,134.35878 c 0,-0.17409 0.141023,-0.31511 0.315119,-0.31511 h 4.926012 c 0.174096,0 0.315119,0.14102 0.315119,0.31511 v 4.92601 c 0,0.1741 -0.141023,0.31512 -0.315119,0.31512 h -4.926012 c -0.174096,0 -0.315119,-0.14102 -0.315119,-0.31512 z"
         stroke="#c13a1c"
         stroke-width="0.529167"
         stroke-miterlimit="8"
         fill="#e25631"
         fill-rule="evenodd"
         id="path6-5-5"
         style="stroke-width:0.329;stroke-dasharray:none" />
      <path
         d="m 29.797833,140.74371 c 0,-0.19341 0.156634,-0.35005 0.350044,-0.35005 h 4.856163 c 0.19341,0 0.350043,0.15664 0.350043,0.35005 v 4.85616 c 0,0.19341 -0.156633,0.35004 -0.350043,0.35004 h -4.856163 c -0.19341,0 -0.350044,-0.15663 -0.350044,-0.35004 z"
         stroke="#193115"
         stroke-width="0.529167"
         stroke-miterlimit="8"
         fill="#2f5427"
         fill-rule="evenodd"
         id="path7-2-7"
         style="stroke-width:0.329;stroke-dasharray:none" />
      <path
         d="m 36.147833,140.74397 c 0,-0.19341 0.156898,-0.35031 0.350309,-0.35031 h 4.855633 c 0.19341,0 0.350308,0.1569 0.350308,0.35031 v 4.85563 c 0,0.19341 -0.156898,0.35031 -0.350308,0.35031 h -4.855633 c -0.193411,0 -0.350309,-0.1569 -0.350309,-0.35031 z"
         stroke="#2b5624"
         stroke-width="0.529167"
         stroke-miterlimit="8"
         fill="#508343"
         fill-rule="evenodd"
         id="path8-7-6"
         style="stroke-width:0.329;stroke-dasharray:none" />
      <path
         d="m 42.497833,140.74371 c 0,-0.19341 0.156634,-0.35005 0.350044,-0.35005 h 4.856162 c 0.193411,0 0.350044,0.15664 0.350044,0.35005 v 4.85616 c 0,0.19341 -0.156633,0.35004 -0.350044,0.35004 h -4.856162 c -0.19341,0 -0.350044,-0.15663 -0.350044,-0.35004 z"
         stroke="#891c0d"
         stroke-width="0.529167"
         stroke-miterlimit="8"
         fill="#c7341b"
         fill-rule="evenodd"
         id="path9-6-1"
         style="stroke-width:0.329;stroke-dasharray:none" />
    </g>
  </g>
</svg>
